<svg width="36" height="36" viewBox="0 0 36 36" fill="none" xmlns="http://www.w3.org/2000/svg">
<rect width="36" height="36" rx="14" fill="url(#paint0_linear_882_1083)"/>
<rect x="1.5" y="1.5" width="33" height="33" rx="13.5" stroke="white"/>
<path d="M13.456 14.384C12.8587 13.3173 12.56 12.4533 12.56 11.792C12.56 11.1093 12.7413 10.672 13.104 10.48C14.32 9.94667 15.984 9.68 18.096 9.68C20.2293 9.68 21.7333 10.1813 22.608 11.184C23.4827 12.1653 23.92 13.6267 23.92 15.568V20.624H25.008C25.3707 20.624 25.648 20.8373 25.84 21.264C26.0533 21.6907 26.16 22.2773 26.16 23.024C26.16 23.7707 25.968 24.5067 25.584 25.232C25.2213 25.9573 24.72 26.32 24.08 26.32C22.928 26.32 22 26.0107 21.296 25.392C20.976 25.136 20.7307 24.8267 20.56 24.464C19.5787 25.7013 18.0533 26.32 15.984 26.32C14.4267 26.32 13.1147 25.7653 12.048 24.656C10.9813 23.5467 10.448 22.2347 10.448 20.72C10.448 17.2427 12.528 15.504 16.688 15.504H18.448V15.184C18.448 14.6293 18.352 14.2773 18.16 14.128C17.9893 13.9573 17.5733 13.872 16.912 13.872C16.1013 13.872 14.9493 14.0427 13.456 14.384ZM16.016 20.272C16.016 20.7413 16.144 21.104 16.4 21.36C16.656 21.5947 16.976 21.712 17.36 21.712C17.7653 21.712 18.128 21.552 18.448 21.232V18.768H17.552C16.528 18.768 16.016 19.2693 16.016 20.272Z" fill="white"/>
<defs>
<linearGradient id="paint0_linear_882_1083" x1="18" y1="0" x2="18" y2="36" gradientUnits="userSpaceOnUse">
<stop stop-color="#5F57FE"/>
<stop offset="1" stop-color="#221ABF"/>
</linearGradient>
</defs>
</svg>
